<?xml version="1.0" encoding="UTF-8"?>
<svg version="1.1" viewBox="0 0 800 800" xmlns="http://www.w3.org/2000/svg">
	<defs>
		<clipPath id="a">
			<path d="m520 160h-240a60 60 0 0 0-60 60v360a60 60 0 0 0 60 60h240a60 60 0 0 0 60-60v-360a60 60 0 0 0-60-60zm-150 128a22.5 22.5 0 1 1-45 0 22.5 22.5 0 0 1 45 0zm-25.8 46.2 39.9 26.7 55.7-55.7a7.5 7.5 0 0 1 8.5-1.4l56.7 29.2v52.5a15 15 0 0 1-15 15h-180a15 15 0 0 1-15-15v-15s46.2-38.2 49.2-36.3zm-34.2 96.3h180a15 15 0 0 1 0 30h-180a15 15 0 0 1 0-30zm0 60h90a15 15 0 0 1 0 30h-90a15 15 0 0 1 0-30z" display="none" fill="#24273a"/>
			<path class="powerclip" d="m19.9 15.4h760v768h-760zm500 145h-240a60 60 0 0 0-60 60v360a60 60 0 0 0 60 60h240a60 60 0 0 0 60-60v-360a60 60 0 0 0-60-60zm-150 128a22.5 22.5 0 0 0-45 0 22.5 22.5 0 1 0 45 0zm-25.8 46.2c-3-1.9-49.2 36.3-49.2 36.3v15a15 15 0 0 0 15 15h180a15 15 0 0 0 15-15v-52.5l-56.7-29.2a7.5 7.5 0 0 0-8.5 1.4l-55.7 55.7zm-34.2 96.3a15 15 0 0 0 0 30h180a15 15 0 0 0 0-30zm0 60a15 15 0 0 0 0 30h90a15 15 0 0 0 0-30z" fill="#24273a"/>
		</clipPath>
	</defs>
	<path d="m561 115c66.7 41.9 141 67.6 179 119 37.9 51.3 39.6 128 30.8 200s-28.2 139-70.5 182c-42.5 43.5-108 63.7-166 82.6-57.8 19-108 36.6-169 54.7-60.7 18-132 36.6-188 16.7-56.5-19.7-98.5-77.6-124-139s-34.8-127-24-186 41.8-112 77.4-156c35.7-44 76-79.5 122-134 45.7-54.1 96.6-127 152-134 55.1-7.18 114 50.9 181 92.8" clip-path="url(#a)" fill="#ed8796"/>
</svg>
