<?xml version="1.0" encoding="UTF-8"?>
<svg version="1.1" viewBox="0 0 800 800" xmlns="http://www.w3.org/2000/svg">
	<defs>
		<clipPath id="a">
			<path d="m247 173a43.6 43.6 0 0 1 65.3 4.1l44.8 57.6c8.3 10.7 11.2 24.4 7.9 37.4l-13.6 54.8a17 17 0 0 0 4.4 16l61.4 61.4a17 17 0 0 0 16.1 4.5l54.8-13.7a43.6 43.6 0 0 1 37.2 7.9l57.8 44.7c20.7 16.3 22.5 46.8 4 65.5l-25.8 25.8c-18.5 18.5-46.2 26.5-71.9 17.5a466 466 0 0 1-175-110 466 466 0 0 1-110-175c-9-25.8-0.9-53.4 17.5-71.9z" display="none"/>
			<path class="powerclip" d="m49.1 48.6h701v703h-701zm198 124-25.9 25.9c-18.4 18.5-26.5 46.1-17.5 71.9a466 466 0 0 0 110 175 466 466 0 0 0 175 110c25.7 9 53.4 1 71.9-17.5l25.8-25.8c18.5-18.7 16.7-49.2-4-65.5l-57.8-44.7a43.6 43.6 0 0 0-37.2-7.9l-54.8 13.7a17 17 0 0 1-16.1-4.5l-61.4-61.4a17 17 0 0 1-4.4-16l13.6-54.8c3.3-13 0.4-26.7-7.9-37.4l-44.8-57.6a43.6 43.6 0 0 0-65.3-4.1z"/>
		</clipPath>
	</defs>
	<path d="m582 90c40.6 33.2 51.2 109 74.5 170s59.5 108 77.3 165c17.9 57.2 17.5 125-17.5 166s-105 55.5-163 83.2c-58.4 27.8-106 68.8-155 72.5-49.5 3.8-101-29.7-156-59.7s-112-56.5-145-101c-33.4-44.7-42.6-108-43.2-171-0.5-63.4 7.5-127 29.2-192 21.7-64.9 56.9-131 112-156 55.1-24.8 130-8.3 203-4.5 72.9 3.7 144-5.3 184 27.9" clip-path="url(#a)" fill="#a6da95"/>
</svg>
