<svg id="visual" viewBox="0 0 900 900" width="900" height="900" xmlns="http://www.w3.org/2000/svg" xmlns:xlink="http://www.w3.org/1999/xlink" version="1.1"><g transform="translate(450.52815968242834 464.85108461352604)"><path d="M181.9 -324.9C222.5 -291.7 233.1 -216.2 256.4 -155C279.7 -93.8 315.9 -46.9 333.7 10.3C351.6 67.5 351.2 135 316.2 176C281.2 217 211.6 231.5 153.1 259.2C94.7 287 47.3 328 -2.2 331.7C-51.7 335.5 -103.3 302 -157.9 272C-212.5 242 -269.9 215.5 -303.2 170.7C-336.6 126 -345.8 63 -346.4 -0.3C-346.9 -63.7 -338.9 -127.3 -317.2 -192.3C-295.5 -257.2 -260.3 -323.5 -205.1 -348.3C-150 -373.1 -75 -356.6 -2.2 -352.8C70.7 -349.1 141.3 -358.1 181.9 -324.9" fill="#BB004B"></path></g></svg>