<?xml version="1.0" encoding="UTF-8"?>
<svg version="1.1" viewBox="0 0 800 800" xmlns="http://www.w3.org/2000/svg">
	<defs>
		<clipPath id="a">
			<path d="m439 160h-159a60 60 0 0 0-60 60v360a60 60 0 0 0 60 60h240a60 60 0 0 0 60-60v-279a30 30 0 0 0-8.7-21.2l-111-111a30 30 0 0 0-21.2-8.8zm6.2 105v-60l90 90h-60a30 30 0 0 1-30-30zm45 135a90 90 0 1 1-180 0 90 90 0 0 1 180 0zm60 172v7.5a30 30 0 0 1-30 30h-240a30 30 0 0 1-30-30v-7.2s30-52.8 150-52.8 150 52.5 150 52.5z" display="none"/>
			<path class="powerclip" d="m73.3 51.8h654v696h-654zm366 108h-159a60 60 0 0 0-60 60v360a60 60 0 0 0 60 60h240a60 60 0 0 0 60-60v-279a30 30 0 0 0-8.7-21.2l-111-111a30 30 0 0 0-21.2-8.8zm6.2 105a30 30 0 0 0 30 30h60l-90-90zm45 135a90 90 0 0 0-180 0 90 90 0 1 0 180 0zm60 172s-30-52.5-150-52.5-150 52.8-150 52.8v7.2a30 30 0 0 0 30 30h240a30 30 0 0 0 30-30z"/>
		</clipPath>
	</defs>
	<path d="m588 62.8c57.5 17 99.9 76.4 120 139 19.8 62.8 16.9 129 4.3 188-12.5 59.1-34.7 111-53.3 176s-33.6 143-78.4 167c-44.9 24.6-120-4-195-3.8-74.9 0.1-150 29-190 1.9-40.6-27-46.8-110-63.6-175-16.9-64.9-44.3-112-51.6-163-7.4-51.1 5.5-106 26.5-164 21.1-57.5 50.5-117 98.4-140 47.9-22.5 114-7.6 184-12.8s142-30.5 199-13.5" clip-path="url(#a)" fill="#8aadf4"/>
</svg>
