<svg id="visual" viewBox="0 0 900 900" width="900" height="900" xmlns="http://www.w3.org/2000/svg" xmlns:xlink="http://www.w3.org/1999/xlink" version="1.1"><g transform="translate(435.7990845617662 447.3527023832712)"><path d="M202.4 -334.5C259.9 -317.5 302.3 -258.2 322 -195.5C341.8 -132.7 338.9 -66.3 326.3 -7.3C313.8 51.8 291.6 103.7 273 168.5C254.4 233.3 239.4 311.1 194.6 335.6C149.7 360.2 74.8 331.6 -0.1 331.8C-75 331.9 -150 360.8 -190.6 333.7C-231.2 306.7 -237.4 223.7 -254.2 158.7C-271.1 93.8 -298.5 46.9 -305.8 -4.2C-313.2 -55.3 -300.3 -110.7 -279.3 -168.3C-258.2 -225.8 -228.8 -285.7 -180.9 -308.2C-133 -330.7 -66.5 -315.8 3 -321C72.5 -326.2 145 -351.5 202.4 -334.5" fill="#BB004B"></path></g></svg>