<?xml version="1.0" encoding="UTF-8"?>
<svg version="1.1" viewBox="0 0 800 800" xmlns="http://www.w3.org/2000/svg">
	<defs>
		<clipPath id="a">
			<path d="m223 402v-4.9c30.2-3.1 44.9-18.4 44.9-48v-53.9c0-32.8 11.7-46.1 40.6-46.1h8.2v-29h-11.2c-48.4 0-71.2 22.8-71.2 70.6v45.7c0 32.8-11.3 43.7-44.7 43.7v38.9c33.4 0 44.7 10.9 44.7 43.8v45.6c0 47.7 22.8 70.5 71.2 70.5h11.2v-28.8h-8.2c-28.9 0-40.6-13.2-40.6-46.2v-53.9c0-29.5-14.7-44.9-44.9-48zm353-4.9v4.9c-30.3 3.1-45 18.5-45 48v53.9c0 33-11.7 46.2-40.5 46.2h-8.4v28.8h11.4c48.3 0 71.1-22.8 71.1-70.5v-45.6c0-32.9 11.4-43.8 44.7-43.8v-38.9c-33.3 0-44.7-10.9-44.7-43.7v-45.7c0-47.8-22.8-70.6-71.1-70.6h-11.4v28.9h8.4c28.8 0 40.5 13.3 40.5 46.2v53.9c0 29.5 14.7 44.9 45 48z" display="none"/>
			<path class="powerclip" d="m20.8 44.4h759v709h-759zm203 358v-4.9c30.2-3.1 44.9-18.4 44.9-48v-53.9c0-32.8 11.7-46.1 40.6-46.1h8.2v-29h-11.2c-48.4 0-71.2 22.8-71.2 70.6v45.7c0 32.8-11.3 43.7-44.7 43.7v38.9c33.4 0 44.7 10.9 44.7 43.8v45.6c0 47.7 22.8 70.5 71.2 70.5h11.2v-28.8h-8.2c-28.9 0-40.6-13.2-40.6-46.2v-53.9c0-29.5-14.7-44.9-44.9-48zm353-4.9v4.9c-30.3 3.1-45 18.5-45 48v53.9c0 33-11.7 46.2-40.5 46.2h-8.4v28.8h11.4c48.3 0 71.1-22.8 71.1-70.5v-45.6c0-32.9 11.4-43.8 44.7-43.8v-38.9c-33.3 0-44.7-10.9-44.7-43.7v-45.7c0-47.8-22.8-70.6-71.1-70.6h-11.4v28.9h8.4c28.8 0 40.5 13.3 40.5 46.2v53.9c0 29.5 14.7 44.9 45 48z"/>
		</clipPath>
	</defs>
	<path d="m510 144c54.9 28.5 116 49.1 165 91.1 49.3 42 86.6 105 96.7 174 10.1 69.2-7 144-43.4 208-36.4 64.3-92.2 118-157 129-65 10.8-139-21-213-20.9-74.2 0.2-149 32.3-207 17.8-58.6-14.5-101-75.6-111-140-9.8-64.4 13.7-132 10.1-202-3.6-69.7-34.3-142-21.5-201s69-105 131-130c62.2-24.3 130-26.5 189-9.5 58.3 17 107 53.4 162 81.9" clip-path="url(#a)" fill="#f5a97f"/>
</svg>
