<svg id="visual" viewBox="0 0 900 900" width="900" height="900" xmlns="http://www.w3.org/2000/svg" xmlns:xlink="http://www.w3.org/1999/xlink" version="1.1"><g transform="translate(408.1189857268921 453.8555718945862)"><path d="M151.8 -259.8C206.7 -231.3 267.9 -210.7 317.1 -168.7C366.4 -126.7 403.7 -63.3 413.8 5.8C423.9 75 406.8 150 370.4 214.2C334 278.5 278.2 331.9 213.3 342.8C148.3 353.6 74.2 321.8 -0.1 321.9C-74.3 322.1 -148.7 354.2 -207.3 339.7C-265.9 325.2 -308.7 264.1 -318.4 199.7C-328.2 135.3 -304.7 67.7 -308.3 -2.1C-311.9 -71.8 -342.6 -143.7 -329.8 -202.7C-317 -261.7 -260.8 -308 -198.5 -332.2C-136.3 -356.5 -68.2 -358.7 -9.8 -341.7C48.5 -324.7 97 -288.3 151.8 -259.8" fill="#BB004B"></path></g></svg>