<?xml version="1.0" encoding="UTF-8"?>
<svg version="1.1" viewBox="0 0 32 32" xmlns="http://www.w3.org/2000/svg">
	<path d="m17.6 3.99 7.93 4.62a3.05 3.05 0 0 1 1.52 2.63v9.47a3.33 3.33 0 0 1-1.69 2.91l-7.87 4.43a3.4 3.4 0 0 1-3.37 0l-7.24-4.19a3.67 3.68 0 0 1-1.84-3.19v-8.98a3.81 3.82 0 0 1 1.81-3.25l7.13-4.4a3.53 3.54 0 0 1 3.63-0.05z" fill="#ff4088" stroke="#c9177e" stroke-width="2"/>
	<path d="m10.5 8.81v14.4h3.01v-6.29h4.98v6.29h3.02v-14.4h-3.02v5.24h-4.98v-5.24z" fill="#fff" stroke-width="27"/>
</svg>
