<svg xmlns="http://www.w3.org/2000/svg" width="95" height="111">
    <path fill="#FFA116"
        d="M68.006 83.066a6.368 6.368 0 019.016.015 6.394 6.394 0 01-.014 9.032L65.935 103.17c-10.216 10.201-26.875 10.349-37.263.343-.06-.057-4.686-4.593-19.945-19.556-10.152-9.954-11.164-25.882-1.61-36.11l17.811-19.073c9.482-10.152 26.959-11.262 37.8-2.495l16.177 13.083a6.394 6.394 0 01.956 8.98 6.368 6.368 0 01-8.966.958L54.718 36.217c-5.67-4.584-15.587-3.955-20.479 1.284L16.427 56.573c-4.65 4.98-4.14 13.001 1.219 18.256l19.85 19.465c5.402 5.202 14.134 5.124 19.437-.17l11.073-11.058z" />
    <path fill="#B3B3B3"
        d="M41.107 72.001c-3.521 0-6.376-2.859-6.376-6.386s2.855-6.386 6.376-6.386h47.017c3.521 0 6.376 2.859 6.376 6.386s-2.855 6.386-6.376 6.386H41.107z" />
    <path fill="#fff"
        d="M49.912 2.023a6.367 6.367 0 019.01-.3 6.394 6.394 0 01.3 9.026L16.429 56.573c-4.651 4.979-4.142 13 1.217 18.256L37.41 94.21a6.394 6.394 0 01.096 9.031 6.367 6.367 0 01-9.016.097L8.726 83.957c-10.151-9.955-11.163-25.883-1.61-36.11L49.913 2.022z" />
</svg>