<svg xmlns="http://www.w3.org/2000/svg" width="16" height="16" fill="#8aadf4" class="bi bi-tumblr" viewBox="0 0 16 16">
	<path d="m12.9 15c-0.45 0.45-1.64 0.98-3.2 0.98-3.96 0-4.82-2.77-4.82-4.39v-4.5h-1.56c-0.179 0-0.328-0.141-0.328-0.312v-2.13c0-0.224 0.149-0.425 0.372-0.5 2.04-0.681 2.67-2.38 2.77-3.66 0.03-0.344 0.21-0.51 0.52-0.51h2.34c0.18 0 0.32 0.141 0.32 0.313v3.6h2.73c0.18 0 0.32 0.138 0.32 0.309v2.56c0 0.172-0.14 0.312-0.32 0.312h-2.74v4.16c0 1.07 0.781 1.68 2.23 1.12 0.16-0.1 0.3-0.1 0.41-0.1 0.12 0 0.19 0.11 0.24 0.26l0.73 2c0.11 0.16 0.11 0.33 0 0.46z"/>
</svg>
