<?xml version="1.0" encoding="UTF-8"?>
<svg version="1.1" viewBox="0 0 100 100" xmlns="http://www.w3.org/2000/svg">
	<path d="m100 50a50 50 0 0 1-50 50 50 50 0 0 1-50-50 50 50 0 0 1 50-50 50 50 0 0 1 50 50z" fill="#4c4f69"/>
	<g transform="matrix(.5 0 0 .5 12.5 -7.5)" fill="#df8e1d">
		<path transform="matrix(2,0,0,2,-25,15)" d="m18.7 65.6q0.97 0 1.65 0.31 0.68 0.32 1.04 0.9 0.36 0.59 0.36 1.43t-0.36 1.43-1.04 0.9-1.65 0.31h-1.58v2.64h-2.06v-7.92zm-0.33 3.73q0.65 0 0.97-0.26 0.34-0.28 0.34-0.83t-0.34-0.81q-0.32-0.28-0.97-0.28h-1.25v2.18zm6.58-4.35v6.5q0 0.4 0.13 0.56 0.13 0.17 0.44 0.17 0.18 0 0.3-0t0.29-0.1l-0.13 1.22q-0.22 0.13-0.57 0.22-0.34 0.1-0.68 0.1-0.96 0-1.39-0.44-0.43-0.45-0.43-1.46v-6.77zm5.35 4.74q0-0.42-0.24-0.66-0.23-0.25-0.63-0.25-0.39 0-0.68 0.2-0.28 0.19-0.39 0.7l-1.72-0.41q0.17-0.87 0.88-1.38 0.72-0.52 2.03-0.52 0.88 0 1.49 0.27 0.62 0.25 0.95 0.76t0.33 1.25v2.2q0 0.46 0.42 0.46 0.22 0 0.35-0l-0.12 1.16q-0.36 0.17-0.87 0.17-0.47 0-0.83-0.15t-0.57-0.45q-0.2-0.31-0.2-0.78v-0.1l0.23-0.1q0 0.52-0.31 0.87-0.3 0.34-0.8 0.51-0.48 0.17-1 0.17-0.62 0-1.07-0.19-0.46-0.19-0.71-0.55-0.24-0.38-0.24-0.92 0-0.64 0.38-1.06 0.4-0.44 1.24-0.6l2.27-0.47v1.08l-1.16 0.24q-0.36 0.1-0.54 0.21-0.16 0.14-0.16 0.41t0.19 0.4 0.45 0.13q0.21 0 0.39-0.1 0.19-0.1 0.33-0.18 0.15-0.13 0.23-0.32 0.1-0.2 0.1-0.46zm6.39-2.32q0.91 0 1.51 0.27 0.61 0.25 0.95 0.68 0.35 0.42 0.43 0.91l-1.88 0.63q-0.1-0.52-0.31-0.77-0.22-0.27-0.64-0.27-0.38 0-0.65 0.18-0.25 0.17-0.38 0.56-0.13 0.37-0.13 0.95 0 0.59 0.14 0.96 0.14 0.36 0.41 0.53 0.26 0.16 0.62 0.16 0.3 0 0.49-0.11 0.21-0.12 0.34-0.34 0.13-0.21 0.17-0.52l1.83 0.58q-0.1 0.53-0.45 0.95-0.36 0.41-0.96 0.65t-1.41 0.24q-0.98 0-1.71-0.36-0.73-0.37-1.13-1.07-0.4-0.71-0.4-1.69t0.4-1.68q0.4-0.71 1.1-1.07 0.72-0.37 1.66-0.37zm6.89 6.24q-1 0-1.73-0.37-0.72-0.37-1.12-1.07-0.39-0.7-0.39-1.68t0.39-1.68q0.4-0.69 1.11-1.07 0.72-0.37 1.64-0.37 0.95 0 1.61 0.37 0.67 0.36 1.02 1.01 0.34 0.64 0.34 1.47 0 0.21-0 0.43-0 0.21-0 0.36h-4.75v-1.09h3.85l-0.97 0.37q0-0.72-0.27-1.11-0.25-0.38-0.79-0.38-0.38 0-0.66 0.18-0.26 0.18-0.41 0.56-0.13 0.39-0.13 0.99 0 0.58 0.16 0.96 0.15 0.36 0.44 0.52t0.7 0.16q0.45 0 0.72-0.18t0.4-0.5l1.63 0.54q-0.16 0.51-0.58 0.87-0.41 0.35-0.99 0.53-0.56 0.18-1.18 0.18zm4.01-0.12v-8.54h2.04v3.63q0.27-0.6 0.76-0.9 0.49-0.31 1.14-0.31 0.62 0 1.08 0.24 0.47 0.24 0.73 0.71t0.26 1.18v3.99h-2.03v-3.43q0-0.65-0.24-0.89-0.23-0.25-0.62-0.25-0.28 0-0.54 0.14-0.25 0.15-0.39 0.46-0.15 0.31-0.15 0.82v3.15zm10.3-6.12q0.94 0 1.65 0.37 0.72 0.36 1.12 1.07 0.41 0.7 0.41 1.68t-0.41 1.69q-0.4 0.7-1.12 1.07-0.71 0.36-1.65 0.36-0.93 0-1.65-0.36-0.72-0.37-1.12-1.07-0.4-0.71-0.4-1.69t0.4-1.68q0.4-0.71 1.12-1.07 0.72-0.37 1.65-0.37zm0 1.45q-0.35 0-0.6 0.17t-0.39 0.54q-0.13 0.37-0.13 0.96t0.13 0.96q0.14 0.36 0.39 0.54 0.25 0.17 0.6 0.17 0.36 0 0.61-0.17 0.25-0.18 0.38-0.54 0.13-0.37 0.13-0.96t-0.13-0.96-0.38-0.54-0.61-0.17zm6.34-3.87v6.5q0 0.4 0.14 0.56 0.13 0.17 0.44 0.17 0.18 0 0.3-0t0.29-0.1l-0.14 1.22q-0.21 0.13-0.56 0.22-0.35 0.1-0.68 0.1-0.96 0-1.39-0.44-0.44-0.45-0.44-1.46v-6.77zm4.12 8.66q-0.75 0-1.31-0.36-0.55-0.37-0.86-1.07-0.3-0.69-0.3-1.67 0-1 0.31-1.7 0.32-0.69 0.89-1.07 0.57-0.37 1.32-0.37 0.81 0 1.3 0.51 0.51 0.49 0.65 1.26l-0.19 0.25v-4.44h2.04v8.54h-1.82l-0.14-2.04 0.24 0.18q-0.1 0.6-0.37 1.04-0.29 0.45-0.74 0.7-0.45 0.24-1.02 0.24zm0.71-1.5q0.34 0 0.58-0.18 0.26-0.19 0.39-0.56 0.13-0.38 0.13-0.92 0-0.5-0.13-0.85-0.12-0.36-0.37-0.54-0.24-0.19-0.59-0.19-0.53 0-0.84 0.4-0.3 0.38-0.3 1.22t0.3 1.24q0.3 0.38 0.83 0.38zm7.53 1.5q-1 0-1.73-0.37-0.72-0.37-1.11-1.07-0.4-0.7-0.4-1.68t0.4-1.68q0.39-0.69 1.1-1.07 0.72-0.37 1.64-0.37 0.95 0 1.61 0.37 0.67 0.36 1.02 1.01 0.35 0.64 0.35 1.47 0 0.21-0 0.43-0 0.21-0 0.36h-4.75v-1.09h3.85l-0.97 0.37q0-0.72-0.26-1.11-0.26-0.38-0.8-0.38-0.38 0-0.66 0.18-0.26 0.18-0.4 0.56-0.14 0.39-0.14 0.99 0 0.58 0.16 0.96 0.16 0.36 0.44 0.52 0.29 0.16 0.7 0.16 0.46 0 0.72-0.18 0.28-0.18 0.41-0.5l1.63 0.54q-0.17 0.51-0.59 0.87-0.41 0.35-0.98 0.53t-1.19 0.18zm4.02-0.12v-6h1.8l0.1 1.3q0.23-0.67 0.67-1.05 0.46-0.37 1.15-0.37 0.23 0 0.39 0 0.17 0 0.26 0.1l-0.2 1.68q-0.12-0-0.31-0.1-0.18-0-0.45-0-0.36 0-0.67 0.15-0.31 0.16-0.5 0.47-0.18 0.3-0.18 0.77v3.02z"/>
		<path transform="matrix(2,0,0,2,-25,15)" d="m34.6 80.6v7.92h-2.06v-7.92zm1.59 7.92v-6h1.82l0.1 1.16q0.29-0.64 0.81-0.96t1.21-0.32q0.67 0 1.16 0.3t0.73 0.88q0.19-0.39 0.49-0.65 0.32-0.27 0.71-0.4 0.4-0.13 0.82-0.13 0.6 0 1.05 0.24 0.46 0.23 0.72 0.7 0.28 0.47 0.28 1.18v4h-2.04v-3.53q0-0.58-0.23-0.81-0.21-0.22-0.59-0.22-0.3 0-0.55 0.15-0.24 0.15-0.37 0.45t-0.13 0.75v3.21h-2.04v-3.53q0-0.58-0.23-0.81-0.23-0.22-0.59-0.22-0.27 0-0.52 0.14-0.24 0.14-0.39 0.46-0.14 0.3-0.14 0.79v3.17zm14.6-3.81q0-0.42-0.24-0.66-0.22-0.25-0.62-0.25t-0.68 0.2-0.39 0.7l-1.73-0.41q0.17-0.86 0.89-1.38 0.72-0.51 2.03-0.51 0.88 0 1.49 0.26 0.62 0.25 0.94 0.77 0.34 0.5 0.34 1.25v2.19q0 0.47 0.42 0.47 0.22 0 0.35-0l-0.12 1.17q-0.36 0.16-0.88 0.16-0.46 0-0.82-0.14-0.36-0.16-0.57-0.46-0.2-0.31-0.2-0.78v-0.1l0.23-0.1q0 0.51-0.32 0.86-0.3 0.35-0.79 0.52-0.48 0.17-1.01 0.17-0.61 0-1.06-0.2-0.46-0.19-0.71-0.55-0.24-0.37-0.24-0.91 0-0.65 0.38-1.07 0.4-0.43 1.24-0.6l2.27-0.47v1.08l-1.15 0.24q-0.36 0.1-0.54 0.22-0.17 0.13-0.17 0.41 0 0.26 0.2 0.39 0.19 0.14 0.45 0.14 0.21 0 0.39-0.1 0.19-0.1 0.33-0.18 0.15-0.14 0.23-0.33 0.1-0.19 0.1-0.45zm9.47-3.8 0.17 1.37q-0.1-0-0.15-0-0.1-0-0.14-0-0.53 0-0.79 0.27-0.26 0.25-0.26 0.63l-0.71-0.3q0-0.49 0.17-0.95 0.18-0.46 0.56-0.74 0.38-0.29 0.96-0.29 0 0 0.1 0t0.11 0zm-2.06 6.27q1.04 0 1.59 0.45 0.56 0.43 0.56 1.25 0 0.74-0.4 1.23-0.41 0.49-1.16 0.73-0.73 0.25-1.73 0.25-1.64 0-2.36-0.4-0.72-0.41-0.72-1.11 0-0.5 0.41-0.81t1.36-0.34v0.19q-0.73-0.1-1.09-0.43t-0.36-0.91 0.45-0.94q0.41-0.36 1.17-0.39l0.74 0.35h-0.19q-0.47 0-0.66 0.15-0.19 0.13-0.19 0.33t0.16 0.31q0.17 0.1 0.51 0.1zm-1.13 2.59q0.57 0 0.95-0.1t0.57-0.22q0.19-0.13 0.19-0.31t-0.13-0.28-0.48-0.1h-2.15q-0.22 0-0.37 0.12-0.13 0.12-0.13 0.3 0 0.27 0.41 0.42t1.14 0.15zm0.1-7.37q0.91 0 1.56 0.24t0.98 0.69q0.35 0.45 0.35 1.11 0 0.64-0.35 1.1-0.33 0.46-0.98 0.7-0.65 0.22-1.56 0.22-1.43 0-2.17-0.52-0.73-0.53-0.73-1.5 0-0.66 0.33-1.11 0.35-0.45 1-0.69t1.57-0.24zm0 1.16q-0.4 0-0.65 0.23-0.24 0.23-0.24 0.65 0 0.4 0.24 0.63 0.25 0.23 0.65 0.23 0.38 0 0.64-0.23 0.25-0.23 0.25-0.63 0-0.42-0.25-0.65-0.26-0.23-0.64-0.23zm6.96 5.08q-1 0-1.73-0.38-0.72-0.37-1.12-1.06-0.39-0.7-0.39-1.68 0-0.99 0.39-1.68 0.4-0.7 1.11-1.07 0.72-0.37 1.64-0.37 0.95 0 1.61 0.37 0.67 0.36 1.02 1.01 0.35 0.63 0.35 1.46 0 0.22-0 0.43-0 0.22-0 0.36h-4.75v-1.09h3.85l-0.97 0.37q0-0.72-0.27-1.1-0.25-0.39-0.79-0.39-0.38 0-0.66 0.18-0.26 0.18-0.41 0.57-0.13 0.38-0.13 0.98 0 0.59 0.16 0.96 0.15 0.36 0.44 0.53 0.29 0.16 0.7 0.16 0.45 0 0.72-0.18t0.4-0.51l1.64 0.54q-0.17 0.52-0.59 0.88-0.41 0.35-0.99 0.53-0.56 0.18-1.18 0.18z"/>
		<path d="m15 75 60-40 60 40-60 40z"/>
	</g>
</svg>
