<svg xmlns="http://www.w3.org/2000/svg" width="349" height="160">
    <path fill="#EED49F"
        d="M23.5 57.5l-7.5 30h39l-11.25 45 37.35-45 24.9-30H62.5l7.5-30H31l-7.5 30z" />
    <path fill="#CAD3F5"
        d="M137.008 69.512c-2.837 0-5.024-.8-6.56-2.4-1.536-1.621-2.304-3.85-2.304-6.688V42.088h-3.328c-.427 0-.8-.139-1.12-.416-.299-.277-.448-.693-.448-1.248v-3.136l5.28-.864 1.664-8.96c.085-.427.277-.757.576-.992.32-.235.715-.352 1.184-.352h4.096v10.336h8.64v5.632h-8.64V59.88c0 1.024.256 1.824.768 2.4.512.576 1.195.864 2.048.864.491 0 .896-.053 1.216-.16.341-.128.629-.256.864-.384.256-.128.48-.245.672-.352.192-.128.384-.192.576-.192.235 0 .427.064.576.192.149.107.309.277.48.512l2.368 3.84a11.97 11.97 0 01-3.968 2.176c-1.493.49-3.04.736-4.64.736zm21.198-33.344v20.864c0 2.005.459 3.563 1.376 4.672.939 1.088 2.336 1.632 4.192 1.632a8.471 8.471 0 003.84-.896c1.195-.619 2.325-1.461 3.392-2.528V36.168h7.904V69h-4.832c-1.024 0-1.696-.48-2.016-1.44l-.544-2.624a24.892 24.892 0 01-2.112 1.888 13.727 13.727 0 01-2.336 1.44c-.811.384-1.696.683-2.656.896a12.51 12.51 0 01-3.04.352c-1.792 0-3.381-.299-4.768-.896a9.72 9.72 0 01-3.456-2.592c-.939-1.11-1.653-2.421-2.144-3.936-.469-1.536-.704-3.221-.704-5.056V36.168h7.904zM187.349 69V36.168h4.64c.811 0 1.376.15 1.696.448.32.299.533.81.64 1.536l.48 3.968c1.173-2.027 2.549-3.627 4.128-4.8 1.579-1.173 3.349-1.76 5.312-1.76 1.621 0 2.965.373 4.032 1.12l-1.024 5.92c-.064.384-.203.661-.416.832-.213.15-.501.224-.864.224-.32 0-.757-.075-1.312-.224-.555-.15-1.291-.224-2.208-.224-1.643 0-3.051.459-4.224 1.376-1.173.896-2.165 2.219-2.976 3.968V69h-7.904zm34.541-32.832V69h-7.904V36.168h7.904zm1.184-9.568c0 .683-.139 1.323-.416 1.92a5.138 5.138 0 01-1.12 1.568c-.448.448-.981.81-1.6 1.088a5.138 5.138 0 01-1.984.384 5.055 5.055 0 01-1.952-.384 5.433 5.433 0 01-1.568-1.088 5.423 5.423 0 01-1.088-1.568 4.822 4.822 0 01-.384-1.92c0-.704.128-1.365.384-1.984a5.3 5.3 0 011.088-1.6c.448-.448.971-.8 1.568-1.056a4.72 4.72 0 011.952-.416c.704 0 1.365.139 1.984.416a4.861 4.861 0 011.6 1.056 5.03 5.03 0 011.12 1.6 4.8 4.8 0 01.416 1.984zm18.559 42.912c-2.837 0-5.024-.8-6.56-2.4-1.536-1.621-2.304-3.85-2.304-6.688V42.088h-3.328c-.427 0-.8-.139-1.12-.416-.299-.277-.448-.693-.448-1.248v-3.136l5.28-.864 1.664-8.96c.085-.427.277-.757.576-.992.32-.235.715-.352 1.184-.352h4.096v10.336h8.64v5.632h-8.64V59.88c0 1.024.256 1.824.768 2.4.512.576 1.195.864 2.048.864.491 0 .896-.053 1.216-.16.341-.128.629-.256.864-.384.256-.128.48-.245.672-.352.192-.128.384-.192.576-.192.235 0 .427.064.576.192.149.107.309.277.48.512l2.368 3.84a11.97 11.97 0 01-3.968 2.176c-1.493.49-3.04.736-4.64.736zm27.982-33.856c2.453 0 4.672.395 6.656 1.184 2.005.79 3.712 1.91 5.12 3.36s2.496 3.221 3.264 5.312c.768 2.09 1.152 4.427 1.152 7.008 0 2.603-.384 4.95-1.152 7.04-.768 2.09-1.856 3.872-3.264 5.344-1.408 1.472-3.115 2.603-5.12 3.392-1.984.79-4.203 1.184-6.656 1.184-2.453 0-4.683-.395-6.688-1.184-2.005-.79-3.723-1.92-5.152-3.392-1.408-1.472-2.507-3.253-3.296-5.344-.768-2.09-1.152-4.437-1.152-7.04 0-2.581.384-4.917 1.152-7.008.789-2.09 1.888-3.861 3.296-5.312 1.429-1.45 3.147-2.57 5.152-3.36 2.005-.79 4.235-1.184 6.688-1.184zm0 27.744c2.731 0 4.747-.917 6.048-2.752 1.323-1.835 1.984-4.523 1.984-8.064 0-3.541-.661-6.24-1.984-8.096-1.301-1.856-3.317-2.784-6.048-2.784-2.773 0-4.821.939-6.144 2.816-1.323 1.856-1.984 4.544-1.984 8.064 0 3.52.661 6.208 1.984 8.064 1.323 1.835 3.371 2.752 6.144 2.752zm-131.743 70.624c-.235.555-.544.971-.928 1.248-.363.299-.928.448-1.696.448h-5.888l6.144-13.152-13.28-30.4h6.912c.64 0 1.131.15 1.472.448.341.299.597.64.768 1.024l7.008 17.024c.235.555.437 1.131.608 1.728.171.597.32 1.195.448 1.792.171-.619.352-1.216.544-1.792.213-.576.437-1.163.672-1.76l6.592-16.992c.171-.427.448-.779.832-1.056a2.327 2.327 0 011.344-.416h6.336l-17.888 41.856zm29.709-41.856v20.864c0 2.005.459 3.563 1.376 4.672.939 1.088 2.336 1.632 4.192 1.632a8.475 8.475 0 003.84-.896c1.195-.619 2.325-1.461 3.392-2.528V92.168h7.904V125h-4.832c-1.024 0-1.696-.48-2.016-1.44l-.544-2.624a24.84 24.84 0 01-2.112 1.888 13.689 13.689 0 01-2.336 1.44c-.811.384-1.696.683-2.656.896-.939.235-1.952.352-3.04.352-1.792 0-3.381-.299-4.768-.896a9.727 9.727 0 01-3.456-2.592c-.939-1.109-1.653-2.421-2.144-3.936-.469-1.536-.704-3.221-.704-5.056V92.168h7.904zm42.711-.512c2.069 0 3.968.33 5.696.992 1.749.661 3.253 1.632 4.512 2.912 1.259 1.259 2.24 2.816 2.944 4.672.704 1.835 1.056 3.936 1.056 6.304 0 .597-.032 1.099-.096 1.504-.043.384-.139.693-.288.928a1.196 1.196 0 01-.544.48c-.235.085-.533.128-.896.128h-20.288c.235 3.371 1.141 5.845 2.72 7.424 1.579 1.579 3.669 2.368 6.272 2.368 1.28 0 2.379-.149 3.296-.448.939-.299 1.749-.629 2.432-.992a40.266 40.266 0 001.824-.992c.533-.299 1.045-.448 1.536-.448.32 0 .597.064.832.192s.437.309.608.544l2.304 2.88a13.533 13.533 0 01-2.944 2.592 17.49 17.49 0 01-3.424 1.664 19.047 19.047 0 01-3.616.864c-1.216.171-2.4.256-3.552.256-2.283 0-4.405-.373-6.368-1.12a14.54 14.54 0 01-5.12-3.36c-1.451-1.493-2.592-3.328-3.424-5.504-.832-2.197-1.248-4.736-1.248-7.616 0-2.24.363-4.341 1.088-6.304.725-1.984 1.76-3.701 3.104-5.152 1.365-1.472 3.019-2.635 4.96-3.488 1.963-.853 4.171-1.28 6.624-1.28zm.16 5.664c-2.304 0-4.107.65-5.408 1.952-1.301 1.301-2.133 3.147-2.496 5.536h14.848a9.701 9.701 0 00-.416-2.88 6.663 6.663 0 00-1.28-2.4 5.897 5.897 0 00-2.176-1.6c-.875-.405-1.899-.608-3.072-.608zM230.911 125V92.168h4.833c1.024 0 1.696.48 2.016 1.44l.544 2.592a18.69 18.69 0 012.08-1.856 15.593 15.593 0 012.336-1.44 12.224 12.224 0 012.656-.928c.938-.213 1.962-.32 3.072-.32 1.792 0 3.381.31 4.768.928 1.386.597 2.538 1.45 3.456 2.56.938 1.088 1.642 2.4 2.112 3.936.49 1.515.736 3.189.736 5.024V125h-7.904v-20.896c0-2.005-.47-3.552-1.408-4.64-.918-1.11-2.304-1.664-4.16-1.664-1.366 0-2.646.31-3.84.928-1.195.619-2.326 1.461-3.392 2.528V125h-7.905zm62.104 0h-3.552c-.747 0-1.334-.107-1.76-.32-.427-.235-.747-.693-.96-1.376l-.704-2.336a27.938 27.938 0 01-2.464 1.984 14.97 14.97 0 01-2.464 1.408c-.854.384-1.76.672-2.72.864-.96.192-2.027.288-3.2.288-1.387 0-2.667-.181-3.84-.544-1.174-.384-2.187-.949-3.04-1.696-.832-.747-1.483-1.675-1.952-2.784-.47-1.109-.704-2.4-.704-3.872 0-1.237.32-2.453.96-3.648.661-1.216 1.749-2.304 3.264-3.264 1.514-.981 3.53-1.792 6.048-2.432 2.517-.64 5.642-1.003 9.376-1.088v-1.92c0-2.197-.47-3.819-1.408-4.864-.918-1.067-2.262-1.6-4.032-1.6-1.28 0-2.347.15-3.2.448-.854.299-1.6.64-2.24 1.024-.619.363-1.195.693-1.728.992a3.539 3.539 0 01-1.76.448c-.534 0-.992-.139-1.376-.416a3.263 3.263 0 01-.928-1.024l-1.44-2.528c3.776-3.456 8.33-5.184 13.664-5.184 1.92 0 3.626.32 5.12.96 1.514.619 2.794 1.493 3.84 2.624 1.045 1.11 1.834 2.443 2.368 4 .554 1.557.832 3.264.832 5.12V125zm-15.36-4.928c.81 0 1.557-.075 2.24-.224a8.177 8.177 0 001.92-.672 10.076 10.076 0 001.76-1.088 16.451 16.451 0 001.728-1.568v-5.536c-2.304.107-4.235.309-5.793.608-1.535.277-2.773.64-3.711 1.088-.939.448-1.611.971-2.016 1.568a3.539 3.539 0 00-.576 1.952c0 1.387.405 2.379 1.216 2.976.832.597 1.909.896 3.232.896zM300.786 125V92.168h4.833c1.024 0 1.696.48 2.016 1.44l.544 2.592a18.69 18.69 0 012.08-1.856 15.593 15.593 0 012.336-1.44 12.224 12.224 0 012.656-.928c.938-.213 1.962-.32 3.072-.32 1.792 0 3.381.31 4.768.928 1.386.597 2.538 1.45 3.456 2.56.938 1.088 1.642 2.4 2.112 3.936.49 1.515.736 3.189.736 5.024V125h-7.904v-20.896c0-2.005-.47-3.552-1.408-4.64-.918-1.11-2.304-1.664-4.16-1.664-1.366 0-2.646.31-3.84.928-1.195.619-2.326 1.461-3.392 2.528V125h-7.905z" />
</svg>
